<svg width="800" height="500" viewBox="0 0 800 500" xmlns="http://www.w3.org/2000/svg">
  <!-- Background -->
  <rect width="800" height="500" fill="#f8f9fa" rx="10" ry="10" />
  
  <!-- Top navigation bar -->
  <rect x="0" y="0" width="800" height="60" fill="#00897b" rx="10" ry="10" />
  <circle cx="40" cy="30" r="20" fill="white" opacity="0.9" />
  <rect x="80" y="20" width="100" height="20" rx="5" ry="5" fill="white" opacity="0.7" />
  <rect x="200" y="20" width="80" height="20" rx="5" ry="5" fill="white" opacity="0.5" />
  <rect x="300" y="20" width="80" height="20" rx="5" ry="5" fill="white" opacity="0.5" />
  <rect x="400" y="20" width="80" height="20" rx="5" ry="5" fill="white" opacity="0.5" />
  <circle cx="750" cy="30" r="15" fill="white" opacity="0.8" />
  
  <!-- Dashboard grid layout -->
  <!-- First row -->
  <rect x="20" y="80" width="360" height="150" rx="8" ry="8" fill="white" stroke="#e9ecef" stroke-width="1" />
  <rect x="40" y="100" width="150" height="20" rx="4" ry="4" fill="#00897b" opacity="0.8" />
  <rect x="40" y="130" width="320" height="80" rx="4" ry="4" fill="#e9ecef" />
  <rect x="40" y="130" width="80" height="80" rx="4" ry="4" fill="#4ebaaa" opacity="0.7" />
  <rect x="130" y="130" width="80" height="80" rx="4" ry="4" fill="#4ebaaa" opacity="0.5" />
  <rect x="220" y="130" width="80" height="80" rx="4" ry="4" fill="#4ebaaa" opacity="0.3" />
  
  <rect x="400" y="80" width="360" height="150" rx="8" ry="8" fill="white" stroke="#e9ecef" stroke-width="1" />
  <rect x="420" y="100" width="180" height="20" rx="4" ry="4" fill="#00897b" opacity="0.8" />
  <!-- Chart placeholder -->
  <path d="M420,170 Q490,120 560,150 T700,140" stroke="#00897b" stroke-width="3" fill="none" />
  <path d="M420,180 Q490,150 560,170 T700,160" stroke="#4ebaaa" stroke-width="3" fill="none" />
  <line x1="420" y1="200" x2="700" y2="200" stroke="#e9ecef" stroke-width="1" />
  <line x1="420" y1="130" x2="700" y2="130" stroke="#e9ecef" stroke-width="1" opacity="0.5" />
  <line x1="420" y1="165" x2="700" y2="165" stroke="#e9ecef" stroke-width="1" opacity="0.5" />
  
  <!-- Second row -->
  <rect x="20" y="250" width="230" height="220" rx="8" ry="8" fill="white" stroke="#e9ecef" stroke-width="1" />
  <rect x="40" y="270" width="120" height="20" rx="4" ry="4" fill="#00897b" opacity="0.8" />
  <circle cx="125" cy="360" r="70" fill="none" stroke="#e9ecef" stroke-width="1" />
  <path d="M 125 360 L 125 290 A 70 70 0 0 1 186 395 z" fill="#00897b" opacity="0.8" />
  <path d="M 125 360 L 186 395 A 70 70 0 0 1 64 395 z" fill="#4ebaaa" opacity="0.6" />
  <path d="M 125 360 L 64 395 A 70 70 0 0 1 125 290 z" fill="#e9ecef" opacity="0.8" />
  
  <rect x="270" y="250" width="230" height="220" rx="8" ry="8" fill="white" stroke="#e9ecef" stroke-width="1" />
  <rect x="290" y="270" width="150" height="20" rx="4" ry="4" fill="#00897b" opacity="0.8" />
  <!-- Calendar placeholder -->
  <rect x="290" y="300" width="190" height="150" rx="4" ry="4" fill="#f8f9fa" />
  <rect x="300" y="310" width="25" height="25" rx="2" ry="2" fill="#e9ecef" />
  <rect x="335" y="310" width="25" height="25" rx="2" ry="2" fill="#e9ecef" />
  <rect x="370" y="310" width="25" height="25" rx="2" ry="2" fill="#e9ecef" />
  <rect x="405" y="310" width="25" height="25" rx="2" ry="2" fill="#e9ecef" />
  <rect x="440" y="310" width="25" height="25" rx="2" ry="2" fill="#e9ecef" />
  
  <rect x="300" y="345" width="25" height="25" rx="2" ry="2" fill="#e9ecef" />
  <rect x="335" y="345" width="25" height="25" rx="2" ry="2" fill="#e9ecef" />
  <rect x="370" y="345" width="25" height="25" rx="2" ry="2" fill="#00897b" opacity="0.8" />
  <rect x="405" y="345" width="25" height="25" rx="2" ry="2" fill="#e9ecef" />
  <rect x="440" y="345" width="25" height="25" rx="2" ry="2" fill="#e9ecef" />
  
  <rect x="300" y="380" width="25" height="25" rx="2" ry="2" fill="#e9ecef" />
  <rect x="335" y="380" width="25" height="25" rx="2" ry="2" fill="#e9ecef" />
  <rect x="370" y="380" width="25" height="25" rx="2" ry="2" fill="#e9ecef" />
  <rect x="405" y="380" width="25" height="25" rx="2" ry="2" fill="#4ebaaa" opacity="0.6" />
  <rect x="440" y="380" width="25" height="25" rx="2" ry="2" fill="#e9ecef" />
  
  <rect x="520" y="250" width="260" height="220" rx="8" ry="8" fill="white" stroke="#e9ecef" stroke-width="1" />
  <rect x="540" y="270" width="120" height="20" rx="4" ry="4" fill="#00897b" opacity="0.8" />
  
  <!-- Task list placeholder -->
  <rect x="540" y="310" width="220" height="30" rx="4" ry="4" fill="#f8f9fa" />
  <circle cx="555" cy="325" r="8" fill="#00897b" opacity="0.8" />
  <rect x="570" y="320" width="170" height="10" rx="2" ry="2" fill="#e9ecef" />
  
  <rect x="540" y="350" width="220" height="30" rx="4" ry="4" fill="#f8f9fa" />
  <circle cx="555" cy="365" r="8" fill="#4ebaaa" />
  <rect x="570" y="360" width="150" height="10" rx="2" ry="2" fill="#e9ecef" />
  
  <rect x="540" y="390" width="220" height="30" rx="4" ry="4" fill="#f8f9fa" />
  <circle cx="555" cy="405" r="8" fill="#e9ecef" />
  <rect x="570" y="400" width="170" height="10" rx="2" ry="2" fill="#e9ecef" />
  
  <rect x="540" y="430" width="220" height="30" rx="4" ry="4" fill="#f8f9fa" />
  <circle cx="555" cy="445" r="8" fill="#e9ecef" />
  <rect x="570" y="440" width="130" height="10" rx="2" ry="2" fill="#e9ecef" />
</svg> 